<mxfile host="app.diagrams.net" agent="Mozilla/5.0 (Windows NT 10.0; Win64; x64) AppleWebKit/537.36 (KHTML, like Gecko) Chrome/135.0.0.0 Safari/537.36" version="27.0.1" pages="3">
  <diagram name="Advises" id="lfaqgyag3E0Axu-bIEkr">
    <mxGraphModel dx="1004" dy="332" grid="0" gridSize="10" guides="1" tooltips="1" connect="1" arrows="1" fold="1" page="0" pageScale="1" pageWidth="827" pageHeight="1169" math="0" shadow="0">
      <root>
        <mxCell id="0" />
        <mxCell id="1" parent="0" />
        <mxCell id="3O3oqk2j8ralRWECDmtJ-1" value="" style="group" vertex="1" connectable="0" parent="1">
          <mxGeometry x="148" y="475" width="80" height="80" as="geometry" />
        </mxCell>
        <mxCell id="3O3oqk2j8ralRWECDmtJ-2" value="&lt;span style=&quot;font-size: 16px;&quot;&gt;Глеб&lt;/span&gt;" style="ellipse;whiteSpace=wrap;html=1;aspect=fixed;" vertex="1" parent="3O3oqk2j8ralRWECDmtJ-1">
          <mxGeometry width="80" height="80" as="geometry" />
        </mxCell>
        <mxCell id="3O3oqk2j8ralRWECDmtJ-3" value="4" style="ellipse;whiteSpace=wrap;html=1;aspect=fixed;" vertex="1" parent="3O3oqk2j8ralRWECDmtJ-1">
          <mxGeometry x="29" y="7" width="22" height="22" as="geometry" />
        </mxCell>
        <mxCell id="3O3oqk2j8ralRWECDmtJ-4" value="" style="group" vertex="1" connectable="0" parent="1">
          <mxGeometry x="-2" y="792" width="80" height="80" as="geometry" />
        </mxCell>
        <mxCell id="3O3oqk2j8ralRWECDmtJ-5" value="&lt;font style=&quot;font-size: 16px;&quot;&gt;Вера&lt;/font&gt;" style="ellipse;whiteSpace=wrap;html=1;aspect=fixed;" vertex="1" parent="3O3oqk2j8ralRWECDmtJ-4">
          <mxGeometry width="80" height="80" as="geometry" />
        </mxCell>
        <mxCell id="3O3oqk2j8ralRWECDmtJ-6" value="3" style="ellipse;whiteSpace=wrap;html=1;aspect=fixed;" vertex="1" parent="3O3oqk2j8ralRWECDmtJ-4">
          <mxGeometry x="29" y="7" width="22" height="22" as="geometry" />
        </mxCell>
        <mxCell id="3O3oqk2j8ralRWECDmtJ-7" value="" style="group" vertex="1" connectable="0" parent="1">
          <mxGeometry x="18" y="582" width="80" height="80" as="geometry" />
        </mxCell>
        <mxCell id="3O3oqk2j8ralRWECDmtJ-8" value="&lt;font style=&quot;font-size: 16px;&quot;&gt;Борис&lt;/font&gt;" style="ellipse;whiteSpace=wrap;html=1;aspect=fixed;" vertex="1" parent="3O3oqk2j8ralRWECDmtJ-7">
          <mxGeometry width="80" height="80" as="geometry" />
        </mxCell>
        <mxCell id="3O3oqk2j8ralRWECDmtJ-9" value="2" style="ellipse;whiteSpace=wrap;html=1;aspect=fixed;" vertex="1" parent="3O3oqk2j8ralRWECDmtJ-7">
          <mxGeometry x="29" y="7" width="22" height="22" as="geometry" />
        </mxCell>
        <mxCell id="3O3oqk2j8ralRWECDmtJ-10" value="" style="group" vertex="1" connectable="0" parent="1">
          <mxGeometry x="243" y="475" width="80" height="80" as="geometry" />
        </mxCell>
        <mxCell id="3O3oqk2j8ralRWECDmtJ-11" value="&lt;font style=&quot;font-size: 16px;&quot;&gt;Алиса&lt;/font&gt;" style="ellipse;whiteSpace=wrap;html=1;aspect=fixed;" vertex="1" parent="3O3oqk2j8ralRWECDmtJ-10">
          <mxGeometry width="80" height="80" as="geometry" />
        </mxCell>
        <mxCell id="3O3oqk2j8ralRWECDmtJ-12" value="1" style="ellipse;whiteSpace=wrap;html=1;aspect=fixed;" vertex="1" parent="3O3oqk2j8ralRWECDmtJ-10">
          <mxGeometry x="29" y="7" width="22" height="22" as="geometry" />
        </mxCell>
        <mxCell id="3O3oqk2j8ralRWECDmtJ-13" value="" style="group" vertex="1" connectable="0" parent="1">
          <mxGeometry x="128" y="792" width="80" height="80" as="geometry" />
        </mxCell>
        <mxCell id="3O3oqk2j8ralRWECDmtJ-14" value="&lt;font style=&quot;font-size: 16px;&quot;&gt;Дарья&lt;/font&gt;" style="ellipse;whiteSpace=wrap;html=1;aspect=fixed;" vertex="1" parent="3O3oqk2j8ralRWECDmtJ-13">
          <mxGeometry width="80" height="80" as="geometry" />
        </mxCell>
        <mxCell id="3O3oqk2j8ralRWECDmtJ-15" value="5" style="ellipse;whiteSpace=wrap;html=1;aspect=fixed;" vertex="1" parent="3O3oqk2j8ralRWECDmtJ-13">
          <mxGeometry x="29" y="7" width="22" height="22" as="geometry" />
        </mxCell>
        <mxCell id="3O3oqk2j8ralRWECDmtJ-16" value="" style="group" vertex="1" connectable="0" parent="1">
          <mxGeometry x="362" y="791" width="80" height="80" as="geometry" />
        </mxCell>
        <mxCell id="3O3oqk2j8ralRWECDmtJ-17" value="&lt;font style=&quot;font-size: 16px;&quot;&gt;Егор&lt;/font&gt;" style="ellipse;whiteSpace=wrap;html=1;aspect=fixed;" vertex="1" parent="3O3oqk2j8ralRWECDmtJ-16">
          <mxGeometry width="80" height="80" as="geometry" />
        </mxCell>
        <mxCell id="3O3oqk2j8ralRWECDmtJ-18" value="6" style="ellipse;whiteSpace=wrap;html=1;aspect=fixed;" vertex="1" parent="3O3oqk2j8ralRWECDmtJ-16">
          <mxGeometry x="29" y="7" width="22" height="22" as="geometry" />
        </mxCell>
        <mxCell id="3O3oqk2j8ralRWECDmtJ-19" value="" style="group" vertex="1" connectable="0" parent="1">
          <mxGeometry x="243" y="683" width="80" height="80" as="geometry" />
        </mxCell>
        <mxCell id="3O3oqk2j8ralRWECDmtJ-20" value="&lt;font style=&quot;font-size: 16px;&quot;&gt;Жанна&lt;/font&gt;" style="ellipse;whiteSpace=wrap;html=1;aspect=fixed;" vertex="1" parent="3O3oqk2j8ralRWECDmtJ-19">
          <mxGeometry width="80" height="80" as="geometry" />
        </mxCell>
        <mxCell id="3O3oqk2j8ralRWECDmtJ-21" value="7" style="ellipse;whiteSpace=wrap;html=1;aspect=fixed;" vertex="1" parent="3O3oqk2j8ralRWECDmtJ-19">
          <mxGeometry x="29" y="7" width="22" height="22" as="geometry" />
        </mxCell>
        <mxCell id="3O3oqk2j8ralRWECDmtJ-22" value="" style="group" vertex="1" connectable="0" parent="1">
          <mxGeometry x="368" y="582" width="80" height="80" as="geometry" />
        </mxCell>
        <mxCell id="3O3oqk2j8ralRWECDmtJ-23" value="&lt;font style=&quot;font-size: 16px;&quot;&gt;Захар&lt;/font&gt;" style="ellipse;whiteSpace=wrap;html=1;aspect=fixed;" vertex="1" parent="3O3oqk2j8ralRWECDmtJ-22">
          <mxGeometry width="80" height="80" as="geometry" />
        </mxCell>
        <mxCell id="3O3oqk2j8ralRWECDmtJ-24" value="8" style="ellipse;whiteSpace=wrap;html=1;aspect=fixed;" vertex="1" parent="3O3oqk2j8ralRWECDmtJ-22">
          <mxGeometry x="29" y="7" width="22" height="22" as="geometry" />
        </mxCell>
        <mxCell id="3O3oqk2j8ralRWECDmtJ-25" value="" style="group" vertex="1" connectable="0" parent="1">
          <mxGeometry x="243" y="900" width="80" height="80" as="geometry" />
        </mxCell>
        <mxCell id="3O3oqk2j8ralRWECDmtJ-26" value="&lt;font style=&quot;font-size: 16px;&quot;&gt;Ирина&lt;/font&gt;" style="ellipse;whiteSpace=wrap;html=1;aspect=fixed;" vertex="1" parent="3O3oqk2j8ralRWECDmtJ-25">
          <mxGeometry width="80" height="80" as="geometry" />
        </mxCell>
        <mxCell id="3O3oqk2j8ralRWECDmtJ-27" value="9" style="ellipse;whiteSpace=wrap;html=1;aspect=fixed;" vertex="1" parent="3O3oqk2j8ralRWECDmtJ-25">
          <mxGeometry x="29" y="7" width="22" height="22" as="geometry" />
        </mxCell>
        <mxCell id="3O3oqk2j8ralRWECDmtJ-62" value="" style="group" vertex="1" connectable="0" parent="1">
          <mxGeometry x="223" y="789" width="120" height="80" as="geometry" />
        </mxCell>
        <mxCell id="3O3oqk2j8ralRWECDmtJ-63" value="Козлов Дмитрий" style="ellipse;whiteSpace=wrap;html=1;" vertex="1" parent="3O3oqk2j8ralRWECDmtJ-62">
          <mxGeometry width="120" height="80" as="geometry" />
        </mxCell>
        <mxCell id="3O3oqk2j8ralRWECDmtJ-64" value="7" style="ellipse;whiteSpace=wrap;html=1;aspect=fixed;" vertex="1" parent="3O3oqk2j8ralRWECDmtJ-62">
          <mxGeometry x="49" y="6" width="22" height="22" as="geometry" />
        </mxCell>
        <mxCell id="3O3oqk2j8ralRWECDmtJ-65" value="" style="group" vertex="1" connectable="0" parent="1">
          <mxGeometry x="343" y="683" width="120" height="80" as="geometry" />
        </mxCell>
        <mxCell id="3O3oqk2j8ralRWECDmtJ-66" value="Лебедева Светлана" style="ellipse;whiteSpace=wrap;html=1;" vertex="1" parent="3O3oqk2j8ralRWECDmtJ-65">
          <mxGeometry width="120" height="80" as="geometry" />
        </mxCell>
        <mxCell id="3O3oqk2j8ralRWECDmtJ-67" value="6" style="ellipse;whiteSpace=wrap;html=1;aspect=fixed;" vertex="1" parent="3O3oqk2j8ralRWECDmtJ-65">
          <mxGeometry x="49" y="6" width="22" height="22" as="geometry" />
        </mxCell>
        <mxCell id="3O3oqk2j8ralRWECDmtJ-68" value="" style="group" vertex="1" connectable="0" parent="1">
          <mxGeometry x="108" y="683" width="120" height="80" as="geometry" />
        </mxCell>
        <mxCell id="3O3oqk2j8ralRWECDmtJ-69" value="Васильев Андрей" style="ellipse;whiteSpace=wrap;html=1;" vertex="1" parent="3O3oqk2j8ralRWECDmtJ-68">
          <mxGeometry width="120" height="80" as="geometry" />
        </mxCell>
        <mxCell id="3O3oqk2j8ralRWECDmtJ-70" value="5" style="ellipse;whiteSpace=wrap;html=1;aspect=fixed;" vertex="1" parent="3O3oqk2j8ralRWECDmtJ-68">
          <mxGeometry x="49" y="6" width="22" height="22" as="geometry" />
        </mxCell>
        <mxCell id="3O3oqk2j8ralRWECDmtJ-71" value="" style="group" vertex="1" connectable="0" parent="1">
          <mxGeometry x="-22" y="683" width="120" height="80" as="geometry" />
        </mxCell>
        <mxCell id="3O3oqk2j8ralRWECDmtJ-72" value="Морозова Елена" style="ellipse;whiteSpace=wrap;html=1;" vertex="1" parent="3O3oqk2j8ralRWECDmtJ-71">
          <mxGeometry width="120" height="80" as="geometry" />
        </mxCell>
        <mxCell id="3O3oqk2j8ralRWECDmtJ-73" value="4" style="ellipse;whiteSpace=wrap;html=1;aspect=fixed;" vertex="1" parent="3O3oqk2j8ralRWECDmtJ-71">
          <mxGeometry x="49" y="6" width="22" height="22" as="geometry" />
        </mxCell>
        <mxCell id="3O3oqk2j8ralRWECDmtJ-74" value="" style="group" vertex="1" connectable="0" parent="1">
          <mxGeometry x="223" y="583" width="120" height="80" as="geometry" />
        </mxCell>
        <mxCell id="3O3oqk2j8ralRWECDmtJ-75" value="Соколов Олег" style="ellipse;whiteSpace=wrap;html=1;" vertex="1" parent="3O3oqk2j8ralRWECDmtJ-74">
          <mxGeometry width="120" height="80" as="geometry" />
        </mxCell>
        <mxCell id="3O3oqk2j8ralRWECDmtJ-76" value="3" style="ellipse;whiteSpace=wrap;html=1;aspect=fixed;" vertex="1" parent="3O3oqk2j8ralRWECDmtJ-74">
          <mxGeometry x="49" y="6" width="22" height="22" as="geometry" />
        </mxCell>
        <mxCell id="3O3oqk2j8ralRWECDmtJ-77" value="" style="group" vertex="1" connectable="0" parent="1">
          <mxGeometry x="348" y="475" width="120" height="80" as="geometry" />
        </mxCell>
        <mxCell id="3O3oqk2j8ralRWECDmtJ-78" value="Петрова Мария" style="ellipse;whiteSpace=wrap;html=1;" vertex="1" parent="3O3oqk2j8ralRWECDmtJ-77">
          <mxGeometry width="120" height="80" as="geometry" />
        </mxCell>
        <mxCell id="3O3oqk2j8ralRWECDmtJ-79" value="2" style="ellipse;whiteSpace=wrap;html=1;aspect=fixed;" vertex="1" parent="3O3oqk2j8ralRWECDmtJ-77">
          <mxGeometry x="49" y="6" width="22" height="22" as="geometry" />
        </mxCell>
        <mxCell id="3O3oqk2j8ralRWECDmtJ-80" value="" style="group" vertex="1" connectable="0" parent="1">
          <mxGeometry x="-2" y="475" width="120" height="80" as="geometry" />
        </mxCell>
        <mxCell id="3O3oqk2j8ralRWECDmtJ-81" value="Иванов Иван" style="ellipse;whiteSpace=wrap;html=1;" vertex="1" parent="3O3oqk2j8ralRWECDmtJ-80">
          <mxGeometry width="120" height="80" as="geometry" />
        </mxCell>
        <mxCell id="3O3oqk2j8ralRWECDmtJ-82" value="1" style="ellipse;whiteSpace=wrap;html=1;aspect=fixed;" vertex="1" parent="3O3oqk2j8ralRWECDmtJ-80">
          <mxGeometry x="49" y="6" width="22" height="22" as="geometry" />
        </mxCell>
        <mxCell id="mMCifCBiEr-umZifV7Nd-1" style="edgeStyle=none;curved=1;rounded=0;orthogonalLoop=1;jettySize=auto;html=1;exitX=0.5;exitY=1;exitDx=0;exitDy=0;entryX=0.5;entryY=0;entryDx=0;entryDy=0;fontSize=12;startSize=8;endSize=8;" edge="1" parent="1" source="3O3oqk2j8ralRWECDmtJ-81" target="3O3oqk2j8ralRWECDmtJ-8">
          <mxGeometry relative="1" as="geometry" />
        </mxCell>
        <mxCell id="mMCifCBiEr-umZifV7Nd-2" style="edgeStyle=none;curved=1;rounded=0;orthogonalLoop=1;jettySize=auto;html=1;exitX=1;exitY=0.5;exitDx=0;exitDy=0;entryX=0;entryY=0.5;entryDx=0;entryDy=0;fontSize=12;startSize=8;endSize=8;" edge="1" parent="1" source="3O3oqk2j8ralRWECDmtJ-81" target="3O3oqk2j8ralRWECDmtJ-2">
          <mxGeometry relative="1" as="geometry" />
        </mxCell>
        <mxCell id="mMCifCBiEr-umZifV7Nd-3" style="edgeStyle=none;curved=1;rounded=0;orthogonalLoop=1;jettySize=auto;html=1;exitX=0;exitY=0.5;exitDx=0;exitDy=0;entryX=1;entryY=0.5;entryDx=0;entryDy=0;fontSize=12;startSize=8;endSize=8;" edge="1" parent="1" source="3O3oqk2j8ralRWECDmtJ-78" target="3O3oqk2j8ralRWECDmtJ-11">
          <mxGeometry relative="1" as="geometry" />
        </mxCell>
        <mxCell id="mMCifCBiEr-umZifV7Nd-5" style="edgeStyle=none;curved=1;rounded=0;orthogonalLoop=1;jettySize=auto;html=1;exitX=0.5;exitY=1;exitDx=0;exitDy=0;entryX=0.5;entryY=0;entryDx=0;entryDy=0;fontSize=12;startSize=8;endSize=8;" edge="1" parent="1" source="3O3oqk2j8ralRWECDmtJ-78" target="3O3oqk2j8ralRWECDmtJ-23">
          <mxGeometry relative="1" as="geometry" />
        </mxCell>
        <mxCell id="mMCifCBiEr-umZifV7Nd-6" style="edgeStyle=none;curved=1;rounded=0;orthogonalLoop=1;jettySize=auto;html=1;exitX=0.5;exitY=0;exitDx=0;exitDy=0;fontSize=12;startSize=8;endSize=8;" edge="1" parent="1" source="3O3oqk2j8ralRWECDmtJ-75" target="3O3oqk2j8ralRWECDmtJ-11">
          <mxGeometry relative="1" as="geometry" />
        </mxCell>
        <mxCell id="mMCifCBiEr-umZifV7Nd-7" style="edgeStyle=none;curved=1;rounded=0;orthogonalLoop=1;jettySize=auto;html=1;exitX=0.5;exitY=1;exitDx=0;exitDy=0;entryX=0.5;entryY=0;entryDx=0;entryDy=0;fontSize=12;startSize=8;endSize=8;" edge="1" parent="1" source="3O3oqk2j8ralRWECDmtJ-75" target="3O3oqk2j8ralRWECDmtJ-20">
          <mxGeometry relative="1" as="geometry" />
        </mxCell>
        <mxCell id="mMCifCBiEr-umZifV7Nd-8" style="edgeStyle=none;curved=1;rounded=0;orthogonalLoop=1;jettySize=auto;html=1;exitX=0.5;exitY=1;exitDx=0;exitDy=0;entryX=0.5;entryY=0;entryDx=0;entryDy=0;fontSize=12;startSize=8;endSize=8;" edge="1" parent="1" source="3O3oqk2j8ralRWECDmtJ-72" target="3O3oqk2j8ralRWECDmtJ-5">
          <mxGeometry relative="1" as="geometry" />
        </mxCell>
        <mxCell id="mMCifCBiEr-umZifV7Nd-9" style="edgeStyle=none;curved=1;rounded=0;orthogonalLoop=1;jettySize=auto;html=1;exitX=0.5;exitY=1;exitDx=0;exitDy=0;entryX=0.5;entryY=0;entryDx=0;entryDy=0;fontSize=12;startSize=8;endSize=8;" edge="1" parent="1" source="3O3oqk2j8ralRWECDmtJ-69" target="3O3oqk2j8ralRWECDmtJ-14">
          <mxGeometry relative="1" as="geometry" />
        </mxCell>
        <mxCell id="mMCifCBiEr-umZifV7Nd-10" style="edgeStyle=none;curved=1;rounded=0;orthogonalLoop=1;jettySize=auto;html=1;exitX=0.5;exitY=1;exitDx=0;exitDy=0;entryX=0.5;entryY=0;entryDx=0;entryDy=0;fontSize=12;startSize=8;endSize=8;" edge="1" parent="1" source="3O3oqk2j8ralRWECDmtJ-66" target="3O3oqk2j8ralRWECDmtJ-17">
          <mxGeometry relative="1" as="geometry" />
        </mxCell>
        <mxCell id="mMCifCBiEr-umZifV7Nd-11" style="edgeStyle=none;curved=1;rounded=0;orthogonalLoop=1;jettySize=auto;html=1;exitX=0.5;exitY=1;exitDx=0;exitDy=0;entryX=0.5;entryY=0;entryDx=0;entryDy=0;fontSize=12;startSize=8;endSize=8;" edge="1" parent="1" source="3O3oqk2j8ralRWECDmtJ-63" target="3O3oqk2j8ralRWECDmtJ-26">
          <mxGeometry relative="1" as="geometry" />
        </mxCell>
      </root>
    </mxGraphModel>
  </diagram>
  <diagram id="gG3MRoudivp_kaEP2gnh" name="Teaches">
    <mxGraphModel dx="1133" dy="-311" grid="0" gridSize="10" guides="1" tooltips="1" connect="1" arrows="1" fold="1" page="0" pageScale="1" pageWidth="827" pageHeight="1169" math="0" shadow="0">
      <root>
        <mxCell id="0" />
        <mxCell id="1" parent="0" />
        <mxCell id="B_pI93oQisfO-DoZhFkH-7" value="" style="group" vertex="1" connectable="0" parent="1">
          <mxGeometry x="79" y="1722" width="120" height="80" as="geometry" />
        </mxCell>
        <mxCell id="B_pI93oQisfO-DoZhFkH-8" value="Фролова Татьяна" style="ellipse;whiteSpace=wrap;html=1;" vertex="1" parent="B_pI93oQisfO-DoZhFkH-7">
          <mxGeometry width="120" height="80" as="geometry" />
        </mxCell>
        <mxCell id="B_pI93oQisfO-DoZhFkH-9" value="8" style="ellipse;whiteSpace=wrap;html=1;aspect=fixed;" vertex="1" parent="B_pI93oQisfO-DoZhFkH-7">
          <mxGeometry x="49" y="6" width="22" height="22" as="geometry" />
        </mxCell>
        <mxCell id="B_pI93oQisfO-DoZhFkH-10" value="" style="group" vertex="1" connectable="0" parent="1">
          <mxGeometry x="-68" y="1723" width="120" height="80" as="geometry" />
        </mxCell>
        <mxCell id="B_pI93oQisfO-DoZhFkH-11" value="Козлов Дмитрий" style="ellipse;whiteSpace=wrap;html=1;" vertex="1" parent="B_pI93oQisfO-DoZhFkH-10">
          <mxGeometry width="120" height="80" as="geometry" />
        </mxCell>
        <mxCell id="B_pI93oQisfO-DoZhFkH-12" value="7" style="ellipse;whiteSpace=wrap;html=1;aspect=fixed;" vertex="1" parent="B_pI93oQisfO-DoZhFkH-10">
          <mxGeometry x="49" y="6" width="22" height="22" as="geometry" />
        </mxCell>
        <mxCell id="B_pI93oQisfO-DoZhFkH-13" value="" style="group" vertex="1" connectable="0" parent="1">
          <mxGeometry x="227" y="1723" width="120" height="80" as="geometry" />
        </mxCell>
        <mxCell id="B_pI93oQisfO-DoZhFkH-14" value="Лебедева Светлана" style="ellipse;whiteSpace=wrap;html=1;" vertex="1" parent="B_pI93oQisfO-DoZhFkH-13">
          <mxGeometry width="120" height="80" as="geometry" />
        </mxCell>
        <mxCell id="B_pI93oQisfO-DoZhFkH-15" value="6" style="ellipse;whiteSpace=wrap;html=1;aspect=fixed;" vertex="1" parent="B_pI93oQisfO-DoZhFkH-13">
          <mxGeometry x="49" y="6" width="22" height="22" as="geometry" />
        </mxCell>
        <mxCell id="B_pI93oQisfO-DoZhFkH-16" value="" style="group" vertex="1" connectable="0" parent="1">
          <mxGeometry x="371" y="1723" width="120" height="80" as="geometry" />
        </mxCell>
        <mxCell id="B_pI93oQisfO-DoZhFkH-17" value="Васильев Андрей" style="ellipse;whiteSpace=wrap;html=1;" vertex="1" parent="B_pI93oQisfO-DoZhFkH-16">
          <mxGeometry width="120" height="80" as="geometry" />
        </mxCell>
        <mxCell id="B_pI93oQisfO-DoZhFkH-18" value="5" style="ellipse;whiteSpace=wrap;html=1;aspect=fixed;" vertex="1" parent="B_pI93oQisfO-DoZhFkH-16">
          <mxGeometry x="49" y="6" width="22" height="22" as="geometry" />
        </mxCell>
        <mxCell id="B_pI93oQisfO-DoZhFkH-19" value="" style="group" vertex="1" connectable="0" parent="1">
          <mxGeometry x="371" y="1381" width="120" height="80" as="geometry" />
        </mxCell>
        <mxCell id="B_pI93oQisfO-DoZhFkH-20" value="Морозова Елена" style="ellipse;whiteSpace=wrap;html=1;" vertex="1" parent="B_pI93oQisfO-DoZhFkH-19">
          <mxGeometry width="120" height="80" as="geometry" />
        </mxCell>
        <mxCell id="B_pI93oQisfO-DoZhFkH-21" value="4" style="ellipse;whiteSpace=wrap;html=1;aspect=fixed;" vertex="1" parent="B_pI93oQisfO-DoZhFkH-19">
          <mxGeometry x="49" y="6" width="22" height="22" as="geometry" />
        </mxCell>
        <mxCell id="B_pI93oQisfO-DoZhFkH-22" value="" style="group" vertex="1" connectable="0" parent="1">
          <mxGeometry x="68" y="1607" width="120" height="80" as="geometry" />
        </mxCell>
        <mxCell id="B_pI93oQisfO-DoZhFkH-23" value="Соколов Олег" style="ellipse;whiteSpace=wrap;html=1;" vertex="1" parent="B_pI93oQisfO-DoZhFkH-22">
          <mxGeometry width="120" height="80" as="geometry" />
        </mxCell>
        <mxCell id="B_pI93oQisfO-DoZhFkH-24" value="3" style="ellipse;whiteSpace=wrap;html=1;aspect=fixed;" vertex="1" parent="B_pI93oQisfO-DoZhFkH-22">
          <mxGeometry x="49" y="6" width="22" height="22" as="geometry" />
        </mxCell>
        <mxCell id="B_pI93oQisfO-DoZhFkH-25" value="" style="group" vertex="1" connectable="0" parent="1">
          <mxGeometry x="212" y="1381" width="120" height="80" as="geometry" />
        </mxCell>
        <mxCell id="B_pI93oQisfO-DoZhFkH-26" value="Петрова Мария" style="ellipse;whiteSpace=wrap;html=1;" vertex="1" parent="B_pI93oQisfO-DoZhFkH-25">
          <mxGeometry width="120" height="80" as="geometry" />
        </mxCell>
        <mxCell id="B_pI93oQisfO-DoZhFkH-27" value="2" style="ellipse;whiteSpace=wrap;html=1;aspect=fixed;" vertex="1" parent="B_pI93oQisfO-DoZhFkH-25">
          <mxGeometry x="49" y="6" width="22" height="22" as="geometry" />
        </mxCell>
        <mxCell id="B_pI93oQisfO-DoZhFkH-28" value="" style="group" vertex="1" connectable="0" parent="1">
          <mxGeometry x="-6" y="1386" width="120" height="80" as="geometry" />
        </mxCell>
        <mxCell id="B_pI93oQisfO-DoZhFkH-29" value="Иванов Иван" style="ellipse;whiteSpace=wrap;html=1;" vertex="1" parent="B_pI93oQisfO-DoZhFkH-28">
          <mxGeometry width="120" height="80" as="geometry" />
        </mxCell>
        <mxCell id="B_pI93oQisfO-DoZhFkH-30" value="1" style="ellipse;whiteSpace=wrap;html=1;aspect=fixed;" vertex="1" parent="B_pI93oQisfO-DoZhFkH-28">
          <mxGeometry x="49" y="6" width="22" height="22" as="geometry" />
        </mxCell>
        <mxCell id="ZpmtzZhgehJsmONXlAtX-1" value="" style="group" vertex="1" connectable="0" parent="1">
          <mxGeometry x="172" y="1490" width="80" height="80" as="geometry" />
        </mxCell>
        <mxCell id="ZpmtzZhgehJsmONXlAtX-2" value="&lt;br&gt;Английский язык" style="whiteSpace=wrap;html=1;aspect=fixed;" vertex="1" parent="ZpmtzZhgehJsmONXlAtX-1">
          <mxGeometry width="80" height="80" as="geometry" />
        </mxCell>
        <mxCell id="ZpmtzZhgehJsmONXlAtX-3" value="9" style="whiteSpace=wrap;html=1;aspect=fixed;" vertex="1" parent="ZpmtzZhgehJsmONXlAtX-1">
          <mxGeometry x="26" width="28" height="28" as="geometry" />
        </mxCell>
        <mxCell id="ZpmtzZhgehJsmONXlAtX-4" value="" style="group" vertex="1" connectable="0" parent="1">
          <mxGeometry x="99" y="1835" width="80" height="80" as="geometry" />
        </mxCell>
        <mxCell id="ZpmtzZhgehJsmONXlAtX-5" value="&lt;br&gt;Физика" style="whiteSpace=wrap;html=1;aspect=fixed;" vertex="1" parent="ZpmtzZhgehJsmONXlAtX-4">
          <mxGeometry width="80" height="80" as="geometry" />
        </mxCell>
        <mxCell id="ZpmtzZhgehJsmONXlAtX-6" value="8" style="whiteSpace=wrap;html=1;aspect=fixed;" vertex="1" parent="ZpmtzZhgehJsmONXlAtX-4">
          <mxGeometry x="26" width="28" height="28" as="geometry" />
        </mxCell>
        <mxCell id="ZpmtzZhgehJsmONXlAtX-7" value="" style="group" vertex="1" connectable="0" parent="1">
          <mxGeometry x="-48" y="1835" width="89.5" height="79" as="geometry" />
        </mxCell>
        <mxCell id="ZpmtzZhgehJsmONXlAtX-8" value="&lt;div&gt;&lt;br&gt;&lt;br&gt;Программи&lt;br&gt;рование на C++&lt;/div&gt;" style="whiteSpace=wrap;html=1;aspect=fixed;" vertex="1" parent="ZpmtzZhgehJsmONXlAtX-7">
          <mxGeometry width="79" height="79" as="geometry" />
        </mxCell>
        <mxCell id="ZpmtzZhgehJsmONXlAtX-9" value="3" style="whiteSpace=wrap;html=1;aspect=fixed;" vertex="1" parent="ZpmtzZhgehJsmONXlAtX-7">
          <mxGeometry x="25" width="29" height="29" as="geometry" />
        </mxCell>
        <mxCell id="ZpmtzZhgehJsmONXlAtX-10" value="" style="group" vertex="1" connectable="0" parent="1">
          <mxGeometry x="282" y="1490" width="80" height="80" as="geometry" />
        </mxCell>
        <mxCell id="ZpmtzZhgehJsmONXlAtX-11" value="&lt;br&gt;Компью&lt;br&gt;терные сети" style="whiteSpace=wrap;html=1;aspect=fixed;" vertex="1" parent="ZpmtzZhgehJsmONXlAtX-10">
          <mxGeometry width="80" height="80" as="geometry" />
        </mxCell>
        <mxCell id="ZpmtzZhgehJsmONXlAtX-12" value="5" style="whiteSpace=wrap;html=1;aspect=fixed;" vertex="1" parent="ZpmtzZhgehJsmONXlAtX-10">
          <mxGeometry x="26" width="28" height="28" as="geometry" />
        </mxCell>
        <mxCell id="ZpmtzZhgehJsmONXlAtX-13" value="" style="group" vertex="1" connectable="0" parent="1">
          <mxGeometry x="-48" y="1490" width="80" height="80" as="geometry" />
        </mxCell>
        <mxCell id="ZpmtzZhgehJsmONXlAtX-14" value="&lt;br&gt;Теория вероятностей" style="whiteSpace=wrap;html=1;aspect=fixed;" vertex="1" parent="ZpmtzZhgehJsmONXlAtX-13">
          <mxGeometry width="80" height="80" as="geometry" />
        </mxCell>
        <mxCell id="ZpmtzZhgehJsmONXlAtX-15" value="7" style="whiteSpace=wrap;html=1;aspect=fixed;" vertex="1" parent="ZpmtzZhgehJsmONXlAtX-13">
          <mxGeometry x="26" width="28" height="28" as="geometry" />
        </mxCell>
        <mxCell id="ZpmtzZhgehJsmONXlAtX-16" value="" style="group" vertex="1" connectable="0" parent="1">
          <mxGeometry x="391" y="1490" width="80" height="80" as="geometry" />
        </mxCell>
        <mxCell id="ZpmtzZhgehJsmONXlAtX-17" value="Философия" style="whiteSpace=wrap;html=1;aspect=fixed;" vertex="1" parent="ZpmtzZhgehJsmONXlAtX-16">
          <mxGeometry width="80" height="80" as="geometry" />
        </mxCell>
        <mxCell id="ZpmtzZhgehJsmONXlAtX-18" value="4" style="whiteSpace=wrap;html=1;aspect=fixed;" vertex="1" parent="ZpmtzZhgehJsmONXlAtX-16">
          <mxGeometry x="26" width="28" height="28" as="geometry" />
        </mxCell>
        <mxCell id="ZpmtzZhgehJsmONXlAtX-19" value="" style="group" vertex="1" connectable="0" parent="1">
          <mxGeometry x="391" y="1607" width="80" height="80" as="geometry" />
        </mxCell>
        <mxCell id="ZpmtzZhgehJsmONXlAtX-20" value="&lt;br&gt;Машинное обучение" style="whiteSpace=wrap;html=1;aspect=fixed;" vertex="1" parent="ZpmtzZhgehJsmONXlAtX-19">
          <mxGeometry width="80" height="80" as="geometry" />
        </mxCell>
        <mxCell id="ZpmtzZhgehJsmONXlAtX-21" value="6" style="whiteSpace=wrap;html=1;aspect=fixed;" vertex="1" parent="ZpmtzZhgehJsmONXlAtX-19">
          <mxGeometry x="26" width="28" height="28" as="geometry" />
        </mxCell>
        <mxCell id="ZpmtzZhgehJsmONXlAtX-22" value="" style="group" vertex="1" connectable="0" parent="1">
          <mxGeometry x="68" y="1490" width="80" height="80" as="geometry" />
        </mxCell>
        <mxCell id="ZpmtzZhgehJsmONXlAtX-23" value="&lt;br&gt;&lt;br&gt;Математи-ческий анализ" style="whiteSpace=wrap;html=1;aspect=fixed;" vertex="1" parent="ZpmtzZhgehJsmONXlAtX-22">
          <mxGeometry width="80" height="80" as="geometry" />
        </mxCell>
        <mxCell id="ZpmtzZhgehJsmONXlAtX-24" value="2" style="whiteSpace=wrap;html=1;aspect=fixed;" vertex="1" parent="ZpmtzZhgehJsmONXlAtX-22">
          <mxGeometry x="26" width="28" height="28" as="geometry" />
        </mxCell>
        <mxCell id="ZpmtzZhgehJsmONXlAtX-25" value="" style="group" vertex="1" connectable="0" parent="1">
          <mxGeometry x="247" y="1607" width="80" height="80" as="geometry" />
        </mxCell>
        <mxCell id="ZpmtzZhgehJsmONXlAtX-26" value="&lt;br&gt;Базы данных" style="whiteSpace=wrap;html=1;aspect=fixed;" vertex="1" parent="ZpmtzZhgehJsmONXlAtX-25">
          <mxGeometry width="80" height="80" as="geometry" />
        </mxCell>
        <mxCell id="ZpmtzZhgehJsmONXlAtX-27" value="1" style="whiteSpace=wrap;html=1;aspect=fixed;" vertex="1" parent="ZpmtzZhgehJsmONXlAtX-25">
          <mxGeometry x="26" width="28" height="28" as="geometry" />
        </mxCell>
        <mxCell id="ZpmtzZhgehJsmONXlAtX-28" value="" style="group" vertex="1" connectable="0" parent="1">
          <mxGeometry x="-48" y="1607" width="80" height="80" as="geometry" />
        </mxCell>
        <mxCell id="ZpmtzZhgehJsmONXlAtX-29" value="&lt;br&gt;История Беларуси" style="whiteSpace=wrap;html=1;aspect=fixed;" vertex="1" parent="ZpmtzZhgehJsmONXlAtX-28">
          <mxGeometry width="80" height="80" as="geometry" />
        </mxCell>
        <mxCell id="ZpmtzZhgehJsmONXlAtX-30" value="10" style="whiteSpace=wrap;html=1;aspect=fixed;" vertex="1" parent="ZpmtzZhgehJsmONXlAtX-28">
          <mxGeometry x="26" width="28" height="28" as="geometry" />
        </mxCell>
        <mxCell id="GJShq1BHqAJ4a-EnT5iQ-1" style="edgeStyle=none;curved=1;rounded=0;orthogonalLoop=1;jettySize=auto;html=1;exitX=0;exitY=1;exitDx=0;exitDy=0;entryX=0.5;entryY=0;entryDx=0;entryDy=0;fontSize=12;startSize=8;endSize=8;" edge="1" parent="1" source="B_pI93oQisfO-DoZhFkH-29" target="ZpmtzZhgehJsmONXlAtX-15">
          <mxGeometry relative="1" as="geometry" />
        </mxCell>
        <mxCell id="GJShq1BHqAJ4a-EnT5iQ-2" style="edgeStyle=none;curved=1;rounded=0;orthogonalLoop=1;jettySize=auto;html=1;exitX=1;exitY=1;exitDx=0;exitDy=0;entryX=0.5;entryY=0;entryDx=0;entryDy=0;fontSize=12;startSize=8;endSize=8;" edge="1" parent="1" source="B_pI93oQisfO-DoZhFkH-29" target="ZpmtzZhgehJsmONXlAtX-24">
          <mxGeometry relative="1" as="geometry" />
        </mxCell>
        <mxCell id="GJShq1BHqAJ4a-EnT5iQ-3" style="edgeStyle=none;curved=1;rounded=0;orthogonalLoop=1;jettySize=auto;html=1;exitX=0;exitY=1;exitDx=0;exitDy=0;entryX=0.5;entryY=0;entryDx=0;entryDy=0;fontSize=12;startSize=8;endSize=8;" edge="1" parent="1" source="B_pI93oQisfO-DoZhFkH-26" target="ZpmtzZhgehJsmONXlAtX-3">
          <mxGeometry relative="1" as="geometry" />
        </mxCell>
        <mxCell id="GJShq1BHqAJ4a-EnT5iQ-5" style="edgeStyle=none;curved=1;rounded=0;orthogonalLoop=1;jettySize=auto;html=1;exitX=1;exitY=1;exitDx=0;exitDy=0;entryX=0.5;entryY=0;entryDx=0;entryDy=0;fontSize=12;startSize=8;endSize=8;" edge="1" parent="1" source="B_pI93oQisfO-DoZhFkH-26" target="ZpmtzZhgehJsmONXlAtX-12">
          <mxGeometry relative="1" as="geometry" />
        </mxCell>
        <mxCell id="GJShq1BHqAJ4a-EnT5iQ-6" style="edgeStyle=none;curved=1;rounded=0;orthogonalLoop=1;jettySize=auto;html=1;exitX=0.5;exitY=0;exitDx=0;exitDy=0;entryX=0.5;entryY=1;entryDx=0;entryDy=0;fontSize=12;startSize=8;endSize=8;" edge="1" parent="1" source="B_pI93oQisfO-DoZhFkH-23" target="ZpmtzZhgehJsmONXlAtX-23">
          <mxGeometry relative="1" as="geometry" />
        </mxCell>
        <mxCell id="GJShq1BHqAJ4a-EnT5iQ-7" style="edgeStyle=none;curved=1;rounded=0;orthogonalLoop=1;jettySize=auto;html=1;exitX=0;exitY=0.5;exitDx=0;exitDy=0;entryX=1;entryY=0.5;entryDx=0;entryDy=0;fontSize=12;startSize=8;endSize=8;" edge="1" parent="1" source="B_pI93oQisfO-DoZhFkH-23" target="ZpmtzZhgehJsmONXlAtX-29">
          <mxGeometry relative="1" as="geometry" />
        </mxCell>
        <mxCell id="GJShq1BHqAJ4a-EnT5iQ-8" style="edgeStyle=none;curved=1;rounded=0;orthogonalLoop=1;jettySize=auto;html=1;exitX=0.5;exitY=1;exitDx=0;exitDy=0;entryX=0.5;entryY=0;entryDx=0;entryDy=0;fontSize=12;startSize=8;endSize=8;" edge="1" parent="1" source="B_pI93oQisfO-DoZhFkH-20" target="ZpmtzZhgehJsmONXlAtX-18">
          <mxGeometry relative="1" as="geometry" />
        </mxCell>
        <mxCell id="GJShq1BHqAJ4a-EnT5iQ-9" style="edgeStyle=none;curved=1;rounded=0;orthogonalLoop=1;jettySize=auto;html=1;exitX=0.5;exitY=0;exitDx=0;exitDy=0;entryX=0.5;entryY=1;entryDx=0;entryDy=0;fontSize=12;startSize=8;endSize=8;" edge="1" parent="1" source="B_pI93oQisfO-DoZhFkH-17" target="ZpmtzZhgehJsmONXlAtX-20">
          <mxGeometry relative="1" as="geometry" />
        </mxCell>
        <mxCell id="GJShq1BHqAJ4a-EnT5iQ-11" style="edgeStyle=none;curved=1;rounded=0;orthogonalLoop=1;jettySize=auto;html=1;exitX=0.5;exitY=0;exitDx=0;exitDy=0;fontSize=12;startSize=8;endSize=8;" edge="1" parent="1" source="B_pI93oQisfO-DoZhFkH-14" target="ZpmtzZhgehJsmONXlAtX-26">
          <mxGeometry relative="1" as="geometry" />
        </mxCell>
        <mxCell id="GJShq1BHqAJ4a-EnT5iQ-12" style="edgeStyle=none;curved=1;rounded=0;orthogonalLoop=1;jettySize=auto;html=1;exitX=0.5;exitY=1;exitDx=0;exitDy=0;entryX=0.5;entryY=0;entryDx=0;entryDy=0;fontSize=12;startSize=8;endSize=8;" edge="1" parent="1" source="B_pI93oQisfO-DoZhFkH-11" target="ZpmtzZhgehJsmONXlAtX-9">
          <mxGeometry relative="1" as="geometry" />
        </mxCell>
        <mxCell id="GJShq1BHqAJ4a-EnT5iQ-13" style="edgeStyle=none;curved=1;rounded=0;orthogonalLoop=1;jettySize=auto;html=1;exitX=0.5;exitY=1;exitDx=0;exitDy=0;entryX=0.5;entryY=0;entryDx=0;entryDy=0;fontSize=12;startSize=8;endSize=8;" edge="1" parent="1" source="B_pI93oQisfO-DoZhFkH-8" target="ZpmtzZhgehJsmONXlAtX-6">
          <mxGeometry relative="1" as="geometry" />
        </mxCell>
      </root>
    </mxGraphModel>
  </diagram>
  <diagram id="N2c5wkpJbBhfA8zUf7MC" name="EnrolledIn">
    <mxGraphModel dx="1041" dy="378" grid="0" gridSize="10" guides="1" tooltips="1" connect="1" arrows="1" fold="1" page="0" pageScale="1" pageWidth="827" pageHeight="1169" math="0" shadow="0">
      <root>
        <mxCell id="0" />
        <mxCell id="1" parent="0" />
        <mxCell id="ulsuTEcjwPSybD5FYAKk-1" value="" style="group" vertex="1" connectable="0" parent="1">
          <mxGeometry x="69" y="451" width="80" height="80" as="geometry" />
        </mxCell>
        <mxCell id="ulsuTEcjwPSybD5FYAKk-2" value="&lt;span style=&quot;font-size: 16px;&quot;&gt;Глеб&lt;/span&gt;" style="ellipse;whiteSpace=wrap;html=1;aspect=fixed;" vertex="1" parent="ulsuTEcjwPSybD5FYAKk-1">
          <mxGeometry width="80" height="80" as="geometry" />
        </mxCell>
        <mxCell id="ulsuTEcjwPSybD5FYAKk-3" value="4" style="ellipse;whiteSpace=wrap;html=1;aspect=fixed;" vertex="1" parent="ulsuTEcjwPSybD5FYAKk-1">
          <mxGeometry x="29" y="7" width="22" height="22" as="geometry" />
        </mxCell>
        <mxCell id="ulsuTEcjwPSybD5FYAKk-4" value="" style="group" vertex="1" connectable="0" parent="1">
          <mxGeometry x="-11" y="670" width="80" height="80" as="geometry" />
        </mxCell>
        <mxCell id="ulsuTEcjwPSybD5FYAKk-5" value="&lt;font style=&quot;font-size: 16px;&quot;&gt;Вера&lt;/font&gt;" style="ellipse;whiteSpace=wrap;html=1;aspect=fixed;" vertex="1" parent="ulsuTEcjwPSybD5FYAKk-4">
          <mxGeometry width="80" height="80" as="geometry" />
        </mxCell>
        <mxCell id="ulsuTEcjwPSybD5FYAKk-6" value="3" style="ellipse;whiteSpace=wrap;html=1;aspect=fixed;" vertex="1" parent="ulsuTEcjwPSybD5FYAKk-4">
          <mxGeometry x="29" y="7" width="22" height="22" as="geometry" />
        </mxCell>
        <mxCell id="ulsuTEcjwPSybD5FYAKk-7" value="" style="group" vertex="1" connectable="0" parent="1">
          <mxGeometry x="75" y="670" width="80" height="80" as="geometry" />
        </mxCell>
        <mxCell id="ulsuTEcjwPSybD5FYAKk-8" value="&lt;font style=&quot;font-size: 16px;&quot;&gt;Борис&lt;/font&gt;" style="ellipse;whiteSpace=wrap;html=1;aspect=fixed;" vertex="1" parent="ulsuTEcjwPSybD5FYAKk-7">
          <mxGeometry width="80" height="80" as="geometry" />
        </mxCell>
        <mxCell id="ulsuTEcjwPSybD5FYAKk-9" value="2" style="ellipse;whiteSpace=wrap;html=1;aspect=fixed;" vertex="1" parent="ulsuTEcjwPSybD5FYAKk-7">
          <mxGeometry x="29" y="7" width="22" height="22" as="geometry" />
        </mxCell>
        <mxCell id="ulsuTEcjwPSybD5FYAKk-10" value="" style="group" vertex="1" connectable="0" parent="1">
          <mxGeometry x="287" y="670" width="80" height="80" as="geometry" />
        </mxCell>
        <mxCell id="ulsuTEcjwPSybD5FYAKk-11" value="&lt;font style=&quot;font-size: 16px;&quot;&gt;Алиса&lt;/font&gt;" style="ellipse;whiteSpace=wrap;html=1;aspect=fixed;" vertex="1" parent="ulsuTEcjwPSybD5FYAKk-10">
          <mxGeometry width="80" height="80" as="geometry" />
        </mxCell>
        <mxCell id="ulsuTEcjwPSybD5FYAKk-12" value="1" style="ellipse;whiteSpace=wrap;html=1;aspect=fixed;" vertex="1" parent="ulsuTEcjwPSybD5FYAKk-10">
          <mxGeometry x="29" y="7" width="22" height="22" as="geometry" />
        </mxCell>
        <mxCell id="ulsuTEcjwPSybD5FYAKk-13" value="" style="group" vertex="1" connectable="0" parent="1">
          <mxGeometry x="182" y="670" width="80" height="80" as="geometry" />
        </mxCell>
        <mxCell id="ulsuTEcjwPSybD5FYAKk-14" value="&lt;font style=&quot;font-size: 16px;&quot;&gt;Дарья&lt;/font&gt;" style="ellipse;whiteSpace=wrap;html=1;aspect=fixed;" vertex="1" parent="ulsuTEcjwPSybD5FYAKk-13">
          <mxGeometry width="80" height="80" as="geometry" />
        </mxCell>
        <mxCell id="ulsuTEcjwPSybD5FYAKk-15" value="5" style="ellipse;whiteSpace=wrap;html=1;aspect=fixed;" vertex="1" parent="ulsuTEcjwPSybD5FYAKk-13">
          <mxGeometry x="29" y="7" width="22" height="22" as="geometry" />
        </mxCell>
        <mxCell id="ulsuTEcjwPSybD5FYAKk-16" value="" style="group" vertex="1" connectable="0" parent="1">
          <mxGeometry x="390" y="670" width="80" height="80" as="geometry" />
        </mxCell>
        <mxCell id="ulsuTEcjwPSybD5FYAKk-17" value="&lt;font style=&quot;font-size: 16px;&quot;&gt;Егор&lt;/font&gt;" style="ellipse;whiteSpace=wrap;html=1;aspect=fixed;" vertex="1" parent="ulsuTEcjwPSybD5FYAKk-16">
          <mxGeometry width="80" height="80" as="geometry" />
        </mxCell>
        <mxCell id="ulsuTEcjwPSybD5FYAKk-18" value="6" style="ellipse;whiteSpace=wrap;html=1;aspect=fixed;" vertex="1" parent="ulsuTEcjwPSybD5FYAKk-16">
          <mxGeometry x="29" y="7" width="22" height="22" as="geometry" />
        </mxCell>
        <mxCell id="ulsuTEcjwPSybD5FYAKk-19" value="" style="group" vertex="1" connectable="0" parent="1">
          <mxGeometry x="87" y="764" width="80" height="80" as="geometry" />
        </mxCell>
        <mxCell id="ulsuTEcjwPSybD5FYAKk-20" value="&lt;font style=&quot;font-size: 16px;&quot;&gt;Жанна&lt;/font&gt;" style="ellipse;whiteSpace=wrap;html=1;aspect=fixed;" vertex="1" parent="ulsuTEcjwPSybD5FYAKk-19">
          <mxGeometry width="80" height="80" as="geometry" />
        </mxCell>
        <mxCell id="ulsuTEcjwPSybD5FYAKk-21" value="7" style="ellipse;whiteSpace=wrap;html=1;aspect=fixed;" vertex="1" parent="ulsuTEcjwPSybD5FYAKk-19">
          <mxGeometry x="29" y="7" width="22" height="22" as="geometry" />
        </mxCell>
        <mxCell id="ulsuTEcjwPSybD5FYAKk-22" value="" style="group" vertex="1" connectable="0" parent="1">
          <mxGeometry x="-11" y="763" width="80" height="80" as="geometry" />
        </mxCell>
        <mxCell id="ulsuTEcjwPSybD5FYAKk-23" value="&lt;font style=&quot;font-size: 16px;&quot;&gt;Захар&lt;/font&gt;" style="ellipse;whiteSpace=wrap;html=1;aspect=fixed;" vertex="1" parent="ulsuTEcjwPSybD5FYAKk-22">
          <mxGeometry width="80" height="80" as="geometry" />
        </mxCell>
        <mxCell id="ulsuTEcjwPSybD5FYAKk-24" value="8" style="ellipse;whiteSpace=wrap;html=1;aspect=fixed;" vertex="1" parent="ulsuTEcjwPSybD5FYAKk-22">
          <mxGeometry x="29" y="7" width="22" height="22" as="geometry" />
        </mxCell>
        <mxCell id="ulsuTEcjwPSybD5FYAKk-25" value="" style="group" vertex="1" connectable="0" parent="1">
          <mxGeometry x="287" y="764" width="80" height="80" as="geometry" />
        </mxCell>
        <mxCell id="ulsuTEcjwPSybD5FYAKk-26" value="&lt;font style=&quot;font-size: 16px;&quot;&gt;Ирина&lt;/font&gt;" style="ellipse;whiteSpace=wrap;html=1;aspect=fixed;" vertex="1" parent="ulsuTEcjwPSybD5FYAKk-25">
          <mxGeometry width="80" height="80" as="geometry" />
        </mxCell>
        <mxCell id="ulsuTEcjwPSybD5FYAKk-27" value="9" style="ellipse;whiteSpace=wrap;html=1;aspect=fixed;" vertex="1" parent="ulsuTEcjwPSybD5FYAKk-25">
          <mxGeometry x="29" y="7" width="22" height="22" as="geometry" />
        </mxCell>
        <mxCell id="ulsuTEcjwPSybD5FYAKk-28" value="" style="group" vertex="1" connectable="0" parent="1">
          <mxGeometry x="-113" y="670" width="80" height="80" as="geometry" />
        </mxCell>
        <mxCell id="ulsuTEcjwPSybD5FYAKk-29" value="&lt;font style=&quot;font-size: 16px;&quot;&gt;Кирилл&lt;/font&gt;" style="ellipse;whiteSpace=wrap;html=1;aspect=fixed;" vertex="1" parent="ulsuTEcjwPSybD5FYAKk-28">
          <mxGeometry width="80" height="80" as="geometry" />
        </mxCell>
        <mxCell id="ulsuTEcjwPSybD5FYAKk-30" value="10" style="ellipse;whiteSpace=wrap;html=1;aspect=fixed;" vertex="1" parent="ulsuTEcjwPSybD5FYAKk-28">
          <mxGeometry x="29" y="7" width="22" height="22" as="geometry" />
        </mxCell>
        <mxCell id="VlWNjfpQaPzTyrSnOAex-1" value="" style="group" vertex="1" connectable="0" parent="1">
          <mxGeometry x="287" y="871" width="80" height="80" as="geometry" />
        </mxCell>
        <mxCell id="VlWNjfpQaPzTyrSnOAex-2" value="&lt;br&gt;Английский язык" style="whiteSpace=wrap;html=1;aspect=fixed;" vertex="1" parent="VlWNjfpQaPzTyrSnOAex-1">
          <mxGeometry width="80" height="80" as="geometry" />
        </mxCell>
        <mxCell id="VlWNjfpQaPzTyrSnOAex-3" value="9" style="whiteSpace=wrap;html=1;aspect=fixed;" vertex="1" parent="VlWNjfpQaPzTyrSnOAex-1">
          <mxGeometry x="26" width="28" height="28" as="geometry" />
        </mxCell>
        <mxCell id="VlWNjfpQaPzTyrSnOAex-4" value="" style="group" vertex="1" connectable="0" parent="1">
          <mxGeometry x="186.75" y="871" width="80" height="80" as="geometry" />
        </mxCell>
        <mxCell id="VlWNjfpQaPzTyrSnOAex-5" value="&lt;br&gt;Физика" style="whiteSpace=wrap;html=1;aspect=fixed;" vertex="1" parent="VlWNjfpQaPzTyrSnOAex-4">
          <mxGeometry width="80" height="80" as="geometry" />
        </mxCell>
        <mxCell id="VlWNjfpQaPzTyrSnOAex-6" value="8" style="whiteSpace=wrap;html=1;aspect=fixed;" vertex="1" parent="VlWNjfpQaPzTyrSnOAex-4">
          <mxGeometry x="26" width="28" height="28" as="geometry" />
        </mxCell>
        <mxCell id="VlWNjfpQaPzTyrSnOAex-7" value="" style="group" vertex="1" connectable="0" parent="1">
          <mxGeometry x="182" y="573" width="89.5" height="79" as="geometry" />
        </mxCell>
        <mxCell id="VlWNjfpQaPzTyrSnOAex-8" value="&lt;div&gt;&lt;br&gt;&lt;br&gt;Программи&lt;br&gt;рование на C++&lt;/div&gt;" style="whiteSpace=wrap;html=1;aspect=fixed;" vertex="1" parent="VlWNjfpQaPzTyrSnOAex-7">
          <mxGeometry width="79" height="79" as="geometry" />
        </mxCell>
        <mxCell id="VlWNjfpQaPzTyrSnOAex-9" value="3" style="whiteSpace=wrap;html=1;aspect=fixed;" vertex="1" parent="VlWNjfpQaPzTyrSnOAex-7">
          <mxGeometry x="28.06" width="29" height="29" as="geometry" />
        </mxCell>
        <mxCell id="VlWNjfpQaPzTyrSnOAex-10" value="" style="group" vertex="1" connectable="0" parent="1">
          <mxGeometry x="-11" y="871" width="80" height="80" as="geometry" />
        </mxCell>
        <mxCell id="VlWNjfpQaPzTyrSnOAex-11" value="&lt;br&gt;Компью&lt;br&gt;терные сети" style="whiteSpace=wrap;html=1;aspect=fixed;" vertex="1" parent="VlWNjfpQaPzTyrSnOAex-10">
          <mxGeometry width="80" height="80" as="geometry" />
        </mxCell>
        <mxCell id="VlWNjfpQaPzTyrSnOAex-12" value="5" style="whiteSpace=wrap;html=1;aspect=fixed;" vertex="1" parent="VlWNjfpQaPzTyrSnOAex-10">
          <mxGeometry x="26" width="28" height="28" as="geometry" />
        </mxCell>
        <mxCell id="VlWNjfpQaPzTyrSnOAex-13" value="" style="group" vertex="1" connectable="0" parent="1">
          <mxGeometry x="87" y="871" width="80" height="80" as="geometry" />
        </mxCell>
        <mxCell id="VlWNjfpQaPzTyrSnOAex-14" value="&lt;br&gt;Теория вероятностей" style="whiteSpace=wrap;html=1;aspect=fixed;" vertex="1" parent="VlWNjfpQaPzTyrSnOAex-13">
          <mxGeometry width="80" height="80" as="geometry" />
        </mxCell>
        <mxCell id="VlWNjfpQaPzTyrSnOAex-15" value="7" style="whiteSpace=wrap;html=1;aspect=fixed;" vertex="1" parent="VlWNjfpQaPzTyrSnOAex-13">
          <mxGeometry x="26" width="28" height="28" as="geometry" />
        </mxCell>
        <mxCell id="VlWNjfpQaPzTyrSnOAex-16" value="" style="group" vertex="1" connectable="0" parent="1">
          <mxGeometry x="287" y="573" width="80" height="80" as="geometry" />
        </mxCell>
        <mxCell id="VlWNjfpQaPzTyrSnOAex-17" value="Философия" style="whiteSpace=wrap;html=1;aspect=fixed;" vertex="1" parent="VlWNjfpQaPzTyrSnOAex-16">
          <mxGeometry width="80" height="80" as="geometry" />
        </mxCell>
        <mxCell id="VlWNjfpQaPzTyrSnOAex-18" value="4" style="whiteSpace=wrap;html=1;aspect=fixed;" vertex="1" parent="VlWNjfpQaPzTyrSnOAex-16">
          <mxGeometry x="26" width="28" height="28" as="geometry" />
        </mxCell>
        <mxCell id="VlWNjfpQaPzTyrSnOAex-19" value="" style="group" vertex="1" connectable="0" parent="1">
          <mxGeometry x="390" y="573" width="80" height="80" as="geometry" />
        </mxCell>
        <mxCell id="VlWNjfpQaPzTyrSnOAex-20" value="&lt;br&gt;Машинное обучение" style="whiteSpace=wrap;html=1;aspect=fixed;" vertex="1" parent="VlWNjfpQaPzTyrSnOAex-19">
          <mxGeometry width="80" height="80" as="geometry" />
        </mxCell>
        <mxCell id="VlWNjfpQaPzTyrSnOAex-21" value="6" style="whiteSpace=wrap;html=1;aspect=fixed;" vertex="1" parent="VlWNjfpQaPzTyrSnOAex-19">
          <mxGeometry x="26" width="28" height="28" as="geometry" />
        </mxCell>
        <mxCell id="VlWNjfpQaPzTyrSnOAex-22" value="" style="group" vertex="1" connectable="0" parent="1">
          <mxGeometry x="69" y="573" width="80" height="80" as="geometry" />
        </mxCell>
        <mxCell id="VlWNjfpQaPzTyrSnOAex-23" value="&lt;br&gt;&lt;br&gt;Математи-ческий анализ" style="whiteSpace=wrap;html=1;aspect=fixed;" vertex="1" parent="VlWNjfpQaPzTyrSnOAex-22">
          <mxGeometry width="80" height="80" as="geometry" />
        </mxCell>
        <mxCell id="VlWNjfpQaPzTyrSnOAex-24" value="2" style="whiteSpace=wrap;html=1;aspect=fixed;" vertex="1" parent="VlWNjfpQaPzTyrSnOAex-22">
          <mxGeometry x="26" width="28" height="28" as="geometry" />
        </mxCell>
        <mxCell id="VlWNjfpQaPzTyrSnOAex-25" value="" style="group" vertex="1" connectable="0" parent="1">
          <mxGeometry x="-39" y="573" width="80" height="80" as="geometry" />
        </mxCell>
        <mxCell id="VlWNjfpQaPzTyrSnOAex-26" value="&lt;br&gt;Базы данных" style="whiteSpace=wrap;html=1;aspect=fixed;" vertex="1" parent="VlWNjfpQaPzTyrSnOAex-25">
          <mxGeometry width="80" height="80" as="geometry" />
        </mxCell>
        <mxCell id="VlWNjfpQaPzTyrSnOAex-27" value="1" style="whiteSpace=wrap;html=1;aspect=fixed;" vertex="1" parent="VlWNjfpQaPzTyrSnOAex-25">
          <mxGeometry x="26" width="28" height="28" as="geometry" />
        </mxCell>
        <mxCell id="VlWNjfpQaPzTyrSnOAex-28" value="" style="group" vertex="1" connectable="0" parent="1">
          <mxGeometry x="390" y="871" width="80" height="80" as="geometry" />
        </mxCell>
        <mxCell id="VlWNjfpQaPzTyrSnOAex-29" value="&lt;br&gt;История Беларуси" style="whiteSpace=wrap;html=1;aspect=fixed;" vertex="1" parent="VlWNjfpQaPzTyrSnOAex-28">
          <mxGeometry width="80" height="80" as="geometry" />
        </mxCell>
        <mxCell id="VlWNjfpQaPzTyrSnOAex-30" value="10" style="whiteSpace=wrap;html=1;aspect=fixed;" vertex="1" parent="VlWNjfpQaPzTyrSnOAex-28">
          <mxGeometry x="26" width="28" height="28" as="geometry" />
        </mxCell>
        <mxCell id="D9XnOPAmlmzMDDFpIfAJ-1" style="edgeStyle=none;curved=1;rounded=0;orthogonalLoop=1;jettySize=auto;html=1;exitX=1;exitY=0;exitDx=0;exitDy=0;entryX=0.5;entryY=1;entryDx=0;entryDy=0;fontSize=12;startSize=8;endSize=8;" edge="1" parent="1" source="ulsuTEcjwPSybD5FYAKk-29" target="VlWNjfpQaPzTyrSnOAex-26">
          <mxGeometry relative="1" as="geometry" />
        </mxCell>
        <mxCell id="D9XnOPAmlmzMDDFpIfAJ-2" style="edgeStyle=none;curved=1;rounded=0;orthogonalLoop=1;jettySize=auto;html=1;exitX=0.5;exitY=0;exitDx=0;exitDy=0;entryX=0.5;entryY=1;entryDx=0;entryDy=0;fontSize=12;startSize=8;endSize=8;" edge="1" parent="1" source="ulsuTEcjwPSybD5FYAKk-5" target="VlWNjfpQaPzTyrSnOAex-26">
          <mxGeometry relative="1" as="geometry" />
        </mxCell>
        <mxCell id="D9XnOPAmlmzMDDFpIfAJ-5" style="edgeStyle=none;curved=1;rounded=0;orthogonalLoop=1;jettySize=auto;html=1;exitX=0.5;exitY=0;exitDx=0;exitDy=0;entryX=0.5;entryY=1;entryDx=0;entryDy=0;fontSize=12;startSize=8;endSize=8;" edge="1" parent="1" source="ulsuTEcjwPSybD5FYAKk-14" target="VlWNjfpQaPzTyrSnOAex-8">
          <mxGeometry relative="1" as="geometry" />
        </mxCell>
        <mxCell id="D9XnOPAmlmzMDDFpIfAJ-6" style="edgeStyle=none;curved=1;rounded=0;orthogonalLoop=1;jettySize=auto;html=1;exitX=0.5;exitY=0;exitDx=0;exitDy=0;entryX=0.5;entryY=1;entryDx=0;entryDy=0;fontSize=12;startSize=8;endSize=8;" edge="1" parent="1" source="ulsuTEcjwPSybD5FYAKk-11" target="VlWNjfpQaPzTyrSnOAex-17">
          <mxGeometry relative="1" as="geometry" />
        </mxCell>
        <mxCell id="D9XnOPAmlmzMDDFpIfAJ-10" style="edgeStyle=none;curved=1;rounded=0;orthogonalLoop=1;jettySize=auto;html=1;exitX=0.5;exitY=1;exitDx=0;exitDy=0;fontSize=12;startSize=8;endSize=8;" edge="1" parent="1" source="ulsuTEcjwPSybD5FYAKk-23" target="VlWNjfpQaPzTyrSnOAex-12">
          <mxGeometry relative="1" as="geometry" />
        </mxCell>
        <mxCell id="D9XnOPAmlmzMDDFpIfAJ-11" style="edgeStyle=none;curved=1;rounded=0;orthogonalLoop=1;jettySize=auto;html=1;exitX=0.5;exitY=1;exitDx=0;exitDy=0;fontSize=12;startSize=8;endSize=8;" edge="1" parent="1" source="ulsuTEcjwPSybD5FYAKk-29" target="VlWNjfpQaPzTyrSnOAex-11">
          <mxGeometry relative="1" as="geometry" />
        </mxCell>
        <mxCell id="D9XnOPAmlmzMDDFpIfAJ-12" style="edgeStyle=none;curved=1;rounded=0;orthogonalLoop=1;jettySize=auto;html=1;exitX=0.3;exitY=0.922;exitDx=0;exitDy=0;fontSize=12;startSize=8;endSize=8;exitPerimeter=0;" edge="1" parent="1" source="ulsuTEcjwPSybD5FYAKk-8" target="VlWNjfpQaPzTyrSnOAex-11">
          <mxGeometry relative="1" as="geometry" />
        </mxCell>
        <mxCell id="D9XnOPAmlmzMDDFpIfAJ-13" style="edgeStyle=none;curved=1;rounded=0;orthogonalLoop=1;jettySize=auto;html=1;exitX=0.5;exitY=0;exitDx=0;exitDy=0;fontSize=12;startSize=8;endSize=8;" edge="1" parent="1" source="ulsuTEcjwPSybD5FYAKk-17" target="VlWNjfpQaPzTyrSnOAex-20">
          <mxGeometry relative="1" as="geometry" />
        </mxCell>
        <mxCell id="D9XnOPAmlmzMDDFpIfAJ-14" style="edgeStyle=none;curved=1;rounded=0;orthogonalLoop=1;jettySize=auto;html=1;exitX=0.5;exitY=1;exitDx=0;exitDy=0;entryX=0.5;entryY=0;entryDx=0;entryDy=0;fontSize=12;startSize=8;endSize=8;" edge="1" parent="1" source="ulsuTEcjwPSybD5FYAKk-20" target="VlWNjfpQaPzTyrSnOAex-15">
          <mxGeometry relative="1" as="geometry" />
        </mxCell>
        <mxCell id="D9XnOPAmlmzMDDFpIfAJ-15" style="edgeStyle=none;curved=1;rounded=0;orthogonalLoop=1;jettySize=auto;html=1;exitX=1;exitY=1;exitDx=0;exitDy=0;fontSize=12;startSize=8;endSize=8;" edge="1" parent="1" source="ulsuTEcjwPSybD5FYAKk-5" target="VlWNjfpQaPzTyrSnOAex-14">
          <mxGeometry relative="1" as="geometry" />
        </mxCell>
        <mxCell id="D9XnOPAmlmzMDDFpIfAJ-16" style="edgeStyle=none;curved=1;rounded=0;orthogonalLoop=1;jettySize=auto;html=1;exitX=1;exitY=1;exitDx=0;exitDy=0;entryX=0.5;entryY=0;entryDx=0;entryDy=0;fontSize=12;startSize=8;endSize=8;" edge="1" parent="1" source="ulsuTEcjwPSybD5FYAKk-8" target="VlWNjfpQaPzTyrSnOAex-6">
          <mxGeometry relative="1" as="geometry" />
        </mxCell>
        <mxCell id="D9XnOPAmlmzMDDFpIfAJ-17" style="edgeStyle=none;curved=1;rounded=0;orthogonalLoop=1;jettySize=auto;html=1;exitX=0;exitY=1;exitDx=0;exitDy=0;entryX=0.5;entryY=0;entryDx=0;entryDy=0;fontSize=12;startSize=8;endSize=8;" edge="1" parent="1" source="ulsuTEcjwPSybD5FYAKk-11" target="VlWNjfpQaPzTyrSnOAex-6">
          <mxGeometry relative="1" as="geometry" />
        </mxCell>
        <mxCell id="D9XnOPAmlmzMDDFpIfAJ-18" style="edgeStyle=none;curved=1;rounded=0;orthogonalLoop=1;jettySize=auto;html=1;exitX=0.5;exitY=1;exitDx=0;exitDy=0;fontSize=12;startSize=8;endSize=8;" edge="1" parent="1" source="ulsuTEcjwPSybD5FYAKk-26" target="VlWNjfpQaPzTyrSnOAex-3">
          <mxGeometry relative="1" as="geometry" />
        </mxCell>
        <mxCell id="D9XnOPAmlmzMDDFpIfAJ-19" style="edgeStyle=none;curved=1;rounded=0;orthogonalLoop=1;jettySize=auto;html=1;exitX=1;exitY=1;exitDx=0;exitDy=0;entryX=0.5;entryY=0;entryDx=0;entryDy=0;fontSize=12;startSize=8;endSize=8;" edge="1" parent="1" source="ulsuTEcjwPSybD5FYAKk-11" target="VlWNjfpQaPzTyrSnOAex-30">
          <mxGeometry relative="1" as="geometry" />
        </mxCell>
        <mxCell id="D9XnOPAmlmzMDDFpIfAJ-21" style="edgeStyle=none;curved=1;rounded=0;orthogonalLoop=1;jettySize=auto;html=1;exitX=0.5;exitY=1;exitDx=0;exitDy=0;entryX=0.5;entryY=0;entryDx=0;entryDy=0;fontSize=12;startSize=8;endSize=8;" edge="1" parent="1" source="ulsuTEcjwPSybD5FYAKk-2" target="VlWNjfpQaPzTyrSnOAex-24">
          <mxGeometry relative="1" as="geometry" />
        </mxCell>
      </root>
    </mxGraphModel>
  </diagram>
</mxfile>
